<svg width="24" height="24" viewBox="0 0 24 24" fill="none" xmlns="http://www.w3.org/2000/svg">
<path d="M13.3097 23.0375C13.3097 21.5153 13.3097 18.5725 13.3097 16.7809H16.1091C16.2436 16.7809 16.3727 16.7275 16.4678 16.6323C16.563 16.5372 16.6164 16.4081 16.6164 16.2735V13.1732C16.6164 13.0387 16.563 12.9096 16.4678 12.8145C16.3727 12.7193 16.2436 12.6659 16.1091 12.6659H13.3097C13.3097 11.4551 13.3097 11.5986 13.3097 10.8428C13.3106 10.5158 13.4412 10.2025 13.6727 9.97161C13.9043 9.74072 14.2179 9.61105 14.5449 9.61105H16.599V6.40929C16.598 6.16953 16.5022 5.93991 16.3323 5.7707C16.1624 5.60149 15.9325 5.5065 15.6927 5.5065H13.1278C12.5887 5.5065 12.055 5.61266 11.557 5.81893C11.059 6.02521 10.6065 6.32755 10.2254 6.7087C9.84426 7.08984 9.54193 7.54232 9.33565 8.04031C9.12938 8.5383 9.02319 9.07204 9.02319 9.61105C9.02319 9.61105 8.97772 10.2059 8.94972 12.6659H6.24135C6.091 12.6659 5.94682 12.7256 5.84051 12.8319C5.7342 12.9382 5.67448 13.0824 5.67448 13.2327V16.214C5.67401 16.2886 5.68836 16.3625 5.71668 16.4315C5.745 16.5005 5.78671 16.5632 5.83944 16.6159C5.89217 16.6687 5.95486 16.7104 6.02384 16.7387C6.09283 16.767 6.16677 16.7814 6.24135 16.7809H8.9182C8.9182 18.583 8.91821 21.1724 8.9672 22.7681M8.97421 22.7366C6.59851 22.0911 4.50174 20.6807 3.00831 18.7236C1.51487 16.7666 0.708024 14.3718 0.712597 11.91C0.712597 8.94029 1.89232 6.09217 3.99224 3.99224C6.09217 1.89232 8.9403 0.712585 11.91 0.712585C14.8798 0.712585 17.7279 1.89232 19.8278 3.99224C21.9278 6.09217 23.1075 8.94029 23.1075 11.91C23.1093 14.6386 22.1147 17.274 20.3106 19.321C18.5064 21.3681 16.0169 22.6859 13.3097 23.027" stroke="#DCC67F" stroke-width="1.42515" stroke-linecap="round" stroke-linejoin="round"/>
</svg>
