<svg width="286" height="122" viewBox="0 0 286 122" fill="none" xmlns="http://www.w3.org/2000/svg">
<path d="M1 88.0002C1 87.8088 1 87.6174 1.087 86.9446C1.174 86.2718 1.34799 85.1234 6.13563 71.0381C10.9233 56.9528 20.3193 29.9654 30 1.00024" stroke="black" stroke-width="2" stroke-linecap="round"/>
<path d="M30 1.00024C30.3094 2.69994 31.8656 5.5906 35.0555 9.38829C40.485 15.8525 46.7015 20.7064 50.2851 22.8064C53.8316 24.8846 62.5922 25.4466 72.5883 25.9731C79.0666 26.3143 84.0375 23.3605 88.8891 21.5129C94.0406 18.8924 99.8297 14.8147 102.326 12.6496C103.43 11.6559 104.203 10.875 105 10.0705" stroke="black" stroke-width="2" stroke-linecap="round"/>
<path d="M105 12.0002C105 12.2496 103.46 18.1127 100.742 28.6716C99.5633 33.4958 98.7933 37.2358 98.3967 42.7778C98 48.3198 98 55.5505 98 63.0002" stroke="#2A2727" stroke-width="2" stroke-linecap="round"/>
<path d="M55.2656 80.4221C55.2656 82.2659 54.7812 83.8284 53.8125 85.1096C52.8438 86.3596 51.625 87.3752 50.1562 88.1565C48.6875 88.9377 47.0938 89.5002 45.375 89.844C43.6562 90.219 42.0469 90.4065 40.5469 90.4065C38.6719 90.4065 36.7812 90.1096 34.875 89.5159C33 88.9534 31.2969 88.1252 29.7656 87.0315L26.0625 94.5784L27.75 77.094C28.1562 78.5002 28.75 79.7815 29.5312 80.9377C30.3438 82.0627 31.2812 83.0315 32.3438 83.844C33.4062 84.6565 34.5781 85.2815 35.8594 85.719C37.1719 86.1565 38.5625 86.3752 40.0312 86.3752C40.5625 86.3752 41.1875 86.3284 41.9062 86.2346C42.6562 86.1096 43.3594 85.9065 44.0156 85.6252C44.7031 85.344 45.2812 84.969 45.75 84.5002C46.2188 84.0315 46.4531 83.4534 46.4531 82.7659C46.4531 81.8909 46.0938 81.1252 45.375 80.469C44.6875 79.8127 43.8594 79.2659 42.8906 78.8284C41.9219 78.3596 40.9219 77.9846 39.8906 77.7034C38.8594 77.4221 38.0312 77.219 37.4062 77.094C36.125 76.844 34.7344 76.5002 33.2344 76.0627C31.7344 75.6252 30.3281 75.0471 29.0156 74.3284C27.7344 73.5784 26.6562 72.6565 25.7812 71.5627C24.9062 70.4377 24.4688 69.0627 24.4688 67.4377C24.4688 65.5627 24.9062 64.0002 25.7812 62.7502C26.6562 61.469 27.7656 60.4534 29.1094 59.7034C30.4844 58.9534 31.9844 58.4221 33.6094 58.1096C35.2656 57.7971 36.875 57.6409 38.4375 57.6409C40.6875 57.6409 42.7031 57.9065 44.4844 58.4377C46.2656 58.969 48.1406 59.7815 50.1094 60.8752L54.7969 55.1565L53.0625 70.5784C52.2812 69.3284 51.3594 68.1565 50.2969 67.0627C49.2656 65.969 48.125 65.0159 46.875 64.2034C45.625 63.3596 44.2812 62.7034 42.8438 62.2346C41.4375 61.7346 39.9844 61.4846 38.4844 61.4846C37.9531 61.4846 37.3281 61.5627 36.6094 61.719C35.9219 61.844 35.25 62.0627 34.5938 62.3752C33.9375 62.6565 33.375 63.0315 32.9062 63.5002C32.4688 63.969 32.25 64.5471 32.25 65.2346C32.25 65.8909 32.5156 66.4534 33.0469 66.9221C33.6094 67.3596 34.2656 67.7346 35.0156 68.0471C35.7969 68.3284 36.5781 68.5627 37.3594 68.7502C38.1406 68.9377 38.7656 69.0784 39.2344 69.1721C40.6406 69.4846 42.2656 69.9065 44.1094 70.4377C45.9531 70.969 47.7031 71.6721 49.3594 72.5471C51.0156 73.4221 52.4062 74.5002 53.5312 75.7815C54.6875 77.0627 55.2656 78.6096 55.2656 80.4221ZM77.7188 58.719L77.2969 63.1252C75.7656 63.0002 74.25 62.8909 72.75 62.7971C71.25 62.6721 69.7344 62.5315 68.2031 62.3752C67.9531 65.344 67.6875 68.2971 67.4062 71.2346C67.125 74.1721 66.8438 77.1252 66.5625 80.094C66.5625 80.2502 66.5469 80.4065 66.5156 80.5627C66.4844 80.719 66.4688 80.8752 66.4688 81.0315C66.4688 81.469 66.5156 81.9221 66.6094 82.3909C66.7031 82.8284 66.8594 83.2346 67.0781 83.6096C67.2969 83.9534 67.5781 84.2502 67.9219 84.5002C68.2969 84.719 68.75 84.8284 69.2812 84.8284C70.3125 84.8284 71.2188 84.594 72 84.1252C72.7812 83.6252 73.4375 83.0002 73.9688 82.2502C74.5 81.5002 74.9219 80.6721 75.2344 79.7659C75.5469 78.8284 75.75 77.9065 75.8438 77.0002C76.2188 78.469 76.4062 79.9221 76.4062 81.3596C76.4062 82.7346 76.1875 83.9846 75.75 85.1096C75.3125 86.2034 74.7031 87.1565 73.9219 87.969C73.1406 88.7502 72.2031 89.3596 71.1094 89.7971C70.0156 90.2346 68.8125 90.4534 67.5 90.4534C66.125 90.4534 64.9219 90.219 63.8906 89.7502C62.8594 89.2815 62 88.6409 61.3125 87.8284C60.6562 86.9846 60.1562 86.0002 59.8125 84.8752C59.5 83.7502 59.3438 82.5471 59.3438 81.2659C59.3438 81.0159 59.3438 80.7815 59.3438 80.5627C59.3438 80.344 59.3594 80.1096 59.3906 79.8596C59.6406 76.8284 59.875 73.844 60.0938 70.9065C60.3438 67.9377 60.5625 64.9377 60.75 61.9065C59.9062 61.844 59.0625 61.7815 58.2188 61.719C57.4062 61.6252 56.5781 61.5315 55.7344 61.4377L55.9219 57.7346C56.5781 57.7034 57.2656 57.594 57.9844 57.4065C58.7031 57.219 59.3906 56.969 60.0469 56.6565C60.7344 56.344 61.3594 55.969 61.9219 55.5315C62.5156 55.094 63 54.594 63.375 54.0315C63.7188 53.469 64.0312 52.8596 64.3125 52.2034C64.625 51.5471 64.8906 50.8596 65.1094 50.1409C65.3594 49.4221 65.5625 48.719 65.7188 48.0315C65.875 47.3127 65.9844 46.6252 66.0469 45.969L69.8906 46.0627L68.6719 57.7815L77.7188 58.719ZM109.359 88.8596L96.5156 91.2502L96.6562 87.0315C96.3125 87.469 95.875 87.8596 95.3438 88.2034C94.8125 88.5159 94.2344 88.7815 93.6094 89.0002C93.0156 89.1877 92.4062 89.3284 91.7812 89.4221C91.1562 89.5159 90.5625 89.5627 90 89.5627C86.0938 89.5627 83.2812 88.6252 81.5625 86.7502C79.8438 84.8752 78.9844 82.0471 78.9844 78.2659C78.9844 76.7971 79 75.3596 79.0312 73.9534C79.0625 72.5471 79.0938 71.1252 79.125 69.6877C77.9062 68.969 76.6719 68.2659 75.4219 67.5784C74.1719 66.8909 72.9375 66.1877 71.7188 65.469L86.9062 65.3752C86.6875 67.6252 86.4219 70.0002 86.1094 72.5002C85.8281 74.969 85.6875 77.3127 85.6875 79.5315C85.6875 81.5002 86.125 82.9377 87 83.844C87.875 84.7502 89.2969 85.2034 91.2656 85.2034C92.2656 85.2034 93.2656 84.9221 94.2656 84.3596C95.2656 83.7971 96.0625 83.1252 96.6562 82.344L97.2656 70.344L88.875 66.2659L105 66.1252L101.812 86.094L109.359 88.8596ZM144.141 94.6721L127.922 96.9221L128.156 92.844C127.25 93.0627 126.328 93.219 125.391 93.3127C124.453 93.4065 123.516 93.4534 122.578 93.4534C120.734 93.4534 118.875 93.2346 117 92.7971C115.156 92.3909 113.484 91.719 111.984 90.7815C110.516 89.844 109.312 88.6252 108.375 87.1252C107.438 85.6252 106.969 83.7971 106.969 81.6409C106.969 79.8909 107.344 78.3284 108.094 76.9534C108.844 75.5471 109.828 74.3596 111.047 73.3909C112.266 72.3909 113.641 71.6252 115.172 71.094C116.734 70.5627 118.328 70.2971 119.953 70.2971C121.547 70.2971 123.141 70.469 124.734 70.8127C126.359 71.1252 127.875 71.6096 129.281 72.2659L130.125 56.094L119.766 51.1721L139.078 52.5315L134.016 92.2815L144.141 94.6721ZM129 76.6252C128.094 76.0002 126.969 75.5471 125.625 75.2659C124.281 74.9846 123.062 74.844 121.969 74.844C120.844 74.844 119.797 75.0315 118.828 75.4065C117.891 75.7815 117.078 76.3127 116.391 77.0002C115.734 77.6877 115.219 78.5159 114.844 79.4846C114.469 80.4221 114.281 81.4534 114.281 82.5784C114.281 83.7971 114.578 84.8596 115.172 85.7659C115.766 86.6409 116.531 87.3752 117.469 87.969C118.406 88.5315 119.438 88.9377 120.562 89.1877C121.688 89.469 122.766 89.6096 123.797 89.6096C125.359 89.6096 126.906 89.2971 128.438 88.6721L129 76.6252ZM169.312 66.8752L168.141 94.8127C168.047 97.1565 167.672 99.2971 167.016 101.235C166.359 103.172 165.406 104.828 164.156 106.203C162.938 107.61 161.391 108.688 159.516 109.438C157.672 110.188 155.516 110.563 153.047 110.563C151.672 110.563 150.281 110.36 148.875 109.953C147.469 109.547 146.188 108.938 145.031 108.125C143.906 107.344 142.984 106.375 142.266 105.219C141.547 104.063 141.188 102.719 141.188 101.188C141.188 100 141.562 99.0159 142.312 98.2346C143.062 97.4846 144.031 97.1096 145.219 97.1096C146.219 97.1096 147.062 97.4846 147.75 98.2346C148.438 98.9846 148.781 99.844 148.781 100.813C148.781 101.438 148.578 102.016 148.172 102.547C147.797 103.078 147.344 103.469 146.812 103.719C147.5 104.625 148.391 105.313 149.484 105.781C150.578 106.25 151.672 106.485 152.766 106.485C154.391 106.485 155.688 106.078 156.656 105.266C157.656 104.453 158.422 103.438 158.953 102.219C159.484 101 159.844 99.6721 160.031 98.2346C160.25 96.8284 160.406 95.5002 160.5 94.2502C160.562 92.969 160.594 91.7034 160.594 90.4534C160.625 89.2346 160.672 88.0002 160.734 86.7502C159.266 87.1252 157.891 87.4534 156.609 87.7346C155.359 87.9846 153.984 88.1096 152.484 88.1096C150.953 88.1096 149.484 87.9377 148.078 87.594C146.703 87.2502 145.484 86.7034 144.422 85.9534C143.391 85.2034 142.562 84.2346 141.938 83.0471C141.312 81.8596 141 80.4221 141 78.7346C141 78.2659 141.078 77.6409 141.234 76.8596C141.422 76.0471 141.625 75.219 141.844 74.3752C142.094 73.5315 142.344 72.719 142.594 71.9377C142.844 71.1565 143.031 70.5627 143.156 70.1565L136.453 62.7502L152.531 68.2815C152.344 68.8127 152.078 69.5784 151.734 70.5784C151.422 71.5784 151.094 72.6252 150.75 73.719C150.406 74.7815 150.109 75.8127 149.859 76.8127C149.609 77.7815 149.484 78.5002 149.484 78.969C149.484 79.7502 149.672 80.4221 150.047 80.9846C150.422 81.5471 150.891 82.0159 151.453 82.3909C152.047 82.7659 152.688 83.0471 153.375 83.2346C154.094 83.3909 154.797 83.469 155.484 83.469C156.297 83.469 157.203 83.3909 158.203 83.2346C159.234 83.0784 160.141 82.8284 160.922 82.4846L161.016 70.8127L152.109 65.0471L169.312 66.8752ZM207.141 52.8127L203.953 72.3596C203.547 71.0159 203 69.6721 202.312 68.3284C201.656 66.9846 200.844 65.7971 199.875 64.7659C198.906 63.7034 197.781 62.844 196.5 62.1877C195.25 61.5315 193.844 61.2034 192.281 61.2034C190.5 61.2034 188.891 61.5315 187.453 62.1877C186.016 62.8127 184.781 63.6877 183.75 64.8127C182.75 65.9065 181.984 67.2034 181.453 68.7034C180.922 70.2034 180.656 71.8127 180.656 73.5315C180.656 75.4065 180.906 77.1565 181.406 78.7815C181.938 80.3752 182.719 81.7815 183.75 83.0002C184.781 84.1877 186.047 85.1252 187.547 85.8127C189.047 86.469 190.781 86.7971 192.75 86.7971C195.875 86.7971 198.328 85.9377 200.109 84.219C201.922 82.5002 203.047 80.1252 203.484 77.094L206.672 92.7971L202.875 87.3596C202.156 88.1721 201.328 88.844 200.391 89.3752C199.453 89.9377 198.453 90.3909 197.391 90.7346C196.328 91.0784 195.234 91.3284 194.109 91.4846C193.016 91.6409 191.953 91.719 190.922 91.719C188.203 91.719 185.672 91.2815 183.328 90.4065C181.016 89.5315 178.984 88.2815 177.234 86.6565C175.516 85.0315 174.156 83.094 173.156 80.844C172.188 78.5627 171.703 76.0315 171.703 73.2502C171.703 70.5002 172.203 68.0627 173.203 65.9377C174.234 63.7815 175.625 61.969 177.375 60.5002C179.125 59.0315 181.156 57.9221 183.469 57.1721C185.812 56.4221 188.281 56.0471 190.875 56.0471C191.781 56.0471 192.719 56.1409 193.688 56.3284C194.688 56.4846 195.672 56.7346 196.641 57.0784C197.609 57.4221 198.516 57.8596 199.359 58.3909C200.203 58.8909 200.938 59.4846 201.562 60.1721L207.141 52.8127ZM236.906 89.469L222.047 90.0784L222.375 87.4534C221.375 87.5784 220.375 87.6565 219.375 87.6877C218.375 87.6877 217.375 87.6877 216.375 87.6877C215.469 87.6877 214.469 87.5784 213.375 87.3596C212.281 87.1409 211.266 86.7971 210.328 86.3284C209.391 85.8284 208.609 85.1877 207.984 84.4065C207.359 83.6252 207.047 82.6721 207.047 81.5471C207.047 80.2971 207.344 79.2346 207.938 78.3596C208.531 77.4846 209.281 76.7815 210.188 76.2502C211.125 75.719 212.156 75.3284 213.281 75.0784C214.406 74.8284 215.5 74.7034 216.562 74.7034C217.875 74.7034 219.156 74.7659 220.406 74.8909C221.656 75.0159 222.922 75.1252 224.203 75.219C224.266 74.8127 224.312 74.4065 224.344 74.0002C224.375 73.5627 224.391 73.1252 224.391 72.6877C224.391 71.844 224.312 71.0159 224.156 70.2034C224.031 69.3909 223.781 68.6721 223.406 68.0471C223.062 67.3909 222.562 66.8752 221.906 66.5002C221.281 66.1252 220.469 65.9377 219.469 65.9377C218.531 65.9377 217.672 66.094 216.891 66.4065C216.141 66.6877 215.469 67.1877 214.875 67.9065C215.312 68.2502 215.609 68.6409 215.766 69.0784C215.922 69.4846 216 69.9534 216 70.4846V70.7659C215.531 72.9534 214.156 74.0471 211.875 74.0471C210.844 74.0471 210 73.6877 209.344 72.969C208.688 72.219 208.359 71.344 208.359 70.344C208.359 68.969 208.75 67.7815 209.531 66.7815C210.312 65.7815 211.266 64.9534 212.391 64.2971C213.547 63.6409 214.781 63.1565 216.094 62.844C217.438 62.5315 218.672 62.3752 219.797 62.3752C223.391 62.3752 226.188 63.2034 228.188 64.8596C230.219 66.5159 231.234 69.219 231.234 72.969C231.234 73.3752 231.219 73.7815 231.188 74.1877C231.188 74.594 231.172 75.0002 231.141 75.4065L230.016 86.1877C231.203 86.719 232.359 87.2659 233.484 87.8284C234.609 88.3909 235.75 88.9377 236.906 89.469ZM223.688 78.3596C222.875 78.2659 222.062 78.1721 221.25 78.0784C220.438 77.9534 219.625 77.8909 218.812 77.8909C218.281 77.8909 217.75 77.9534 217.219 78.0784C216.719 78.1721 216.25 78.344 215.812 78.594C215.406 78.844 215.078 79.1877 214.828 79.6252C214.578 80.0315 214.453 80.5471 214.453 81.1721C214.453 81.6409 214.562 82.0627 214.781 82.4377C215 82.7815 215.281 83.0784 215.625 83.3284C216 83.5784 216.391 83.7659 216.797 83.8909C217.234 84.0159 217.656 84.0784 218.062 84.0784C218.875 84.0784 219.688 84.0315 220.5 83.9377C221.344 83.844 222.156 83.7502 222.938 83.6565L223.688 78.3596ZM255.094 58.719L254.672 63.1252C253.141 63.0002 251.625 62.8909 250.125 62.7971C248.625 62.6721 247.109 62.5315 245.578 62.3752C245.328 65.344 245.062 68.2971 244.781 71.2346C244.5 74.1721 244.219 77.1252 243.938 80.094C243.938 80.2502 243.922 80.4065 243.891 80.5627C243.859 80.719 243.844 80.8752 243.844 81.0315C243.844 81.469 243.891 81.9221 243.984 82.3909C244.078 82.8284 244.234 83.2346 244.453 83.6096C244.672 83.9534 244.953 84.2502 245.297 84.5002C245.672 84.719 246.125 84.8284 246.656 84.8284C247.688 84.8284 248.594 84.594 249.375 84.1252C250.156 83.6252 250.812 83.0002 251.344 82.2502C251.875 81.5002 252.297 80.6721 252.609 79.7659C252.922 78.8284 253.125 77.9065 253.219 77.0002C253.594 78.469 253.781 79.9221 253.781 81.3596C253.781 82.7346 253.562 83.9846 253.125 85.1096C252.688 86.2034 252.078 87.1565 251.297 87.969C250.516 88.7502 249.578 89.3596 248.484 89.7971C247.391 90.2346 246.188 90.4534 244.875 90.4534C243.5 90.4534 242.297 90.219 241.266 89.7502C240.234 89.2815 239.375 88.6409 238.688 87.8284C238.031 86.9846 237.531 86.0002 237.188 84.8752C236.875 83.7502 236.719 82.5471 236.719 81.2659C236.719 81.0159 236.719 80.7815 236.719 80.5627C236.719 80.344 236.734 80.1096 236.766 79.8596C237.016 76.8284 237.25 73.844 237.469 70.9065C237.719 67.9377 237.938 64.9377 238.125 61.9065C237.281 61.844 236.438 61.7815 235.594 61.719C234.781 61.6252 233.953 61.5315 233.109 61.4377L233.297 57.7346C233.953 57.7034 234.641 57.594 235.359 57.4065C236.078 57.219 236.766 56.969 237.422 56.6565C238.109 56.344 238.734 55.969 239.297 55.5315C239.891 55.094 240.375 54.594 240.75 54.0315C241.094 53.469 241.406 52.8596 241.688 52.2034C242 51.5471 242.266 50.8596 242.484 50.1409C242.734 49.4221 242.938 48.719 243.094 48.0315C243.25 47.3127 243.359 46.6252 243.422 45.969L247.266 46.0627L246.047 57.7815L255.094 58.719Z" fill="black"/>
</svg>
