<svg width="20" height="26" viewBox="0 0 20 26" fill="none" xmlns="http://www.w3.org/2000/svg">
<path d="M17.1954 22.2356C16.8337 21.0233 17.2571 19.7243 17.7298 18.549C18.5304 16.6969 18.9673 14.7073 19.0166 12.6892C19.0166 9.04792 17.7586 5.29118 15.0576 2.77157C13.6828 1.52092 11.9136 0.794474 10.0591 0.719101C8.20462 0.643729 6.38268 1.22422 4.91145 2.3592C1.70068 4.83344 0.668762 9.00255 0.713984 12.8871V14.7511M13.9846 6.35099C12.3731 4.28912 10.1572 3.46437 7.88376 4.47057C6.09955 5.26233 4.90729 7.00254 4.29884 8.80461C3.53007 11.0727 3.88774 13.4521 3.63696 15.7944C3.5013 17.1181 3.02852 18.4872 1.99252 19.3037M15.1399 8.44997C15.6482 9.79762 15.9046 11.2277 15.8963 12.6686C15.8876 14.4896 15.4659 16.2848 14.663 17.9181C14.2066 18.8542 13.2446 20.5037 11.9702 19.8562C10.9301 19.3284 11.1027 18.1078 11.3987 17.1758C11.9619 15.4067 12.7842 13.8768 12.8664 11.9716C12.9445 10.1861 12.3854 8.30976 10.6177 7.55924C10.1145 7.34249 9.55381 7.2998 9.02385 7.43793C8.49389 7.57605 8.02479 7.88713 7.6905 8.32214C6.18995 10.384 7.03688 12.6686 6.3421 14.9407M9.12532 15.3036C8.44287 17.2171 7.66176 19.4975 8.3031 21.5264C9.08832 24.0006 11.9126 24.8501 14.1819 24.0501M5.93922 17.6995C5.72619 18.4848 5.42118 19.2419 5.03063 19.9552C4.63855 20.6713 4.07302 21.2769 3.38619 21.7161M9.76252 12.6356C9.92116 11.9367 9.96562 11.2167 9.8941 10.5036C9.98352 11.2163 9.93887 11.9394 9.76252 12.6356Z" stroke="#DCC67F" stroke-width="1.42515" stroke-linecap="round" stroke-linejoin="round"/>
</svg>
