<svg width="325" height="537" viewBox="0 0 325 537" fill="none" xmlns="http://www.w3.org/2000/svg">
<path d="M311.404 251.918L178.917 213.674C173.144 190.973 164.284 169.265 152.609 149.215C174.081 106.748 195.571 64.2892 217.08 21.8373C222.958 10.2215 210.816 -2.21342 199.859 4.29285L80.43 75.2205C60.7834 63.2153 39.5442 54.3197 17.4009 48.8223C3.77587 2.38068 -9.83809 -44.0611 -23.4645 -90.6184C-27.07 -102.961 -44.0933 -102.753 -47.4289 -90.2608C-59.845 -43.3149 -72.2957 3.51581 -84.7339 50.462C-106.332 56.5796 -126.983 65.9157 -146.054 78.1834C-186.849 55.6433 -227.657 32.9877 -268.452 10.4476C-279.513 4.32772 -291.425 17.0753 -285.232 28.5341L-217.084 154.581C-228.39 175.063 -236.786 197.156 -242.006 220.163L-372.905 262.442C-384.689 266.252 -384.546 284.098 -372.61 287.531L-240.721 325.599C-234.784 348.845 -225.624 371.049 -213.534 391.503C-234.906 433.69 -256.271 475.885 -277.628 518.088C-283.527 529.704 -271.386 542.15 -260.429 535.656C-220.758 512.085 -181.084 488.525 -141.406 464.977C-121.862 476.81 -100.768 485.588 -78.7896 491.034C-65.4279 536.708 -52.0554 582.355 -38.6722 627.975C-35.0442 640.351 -18.0101 640.12 -14.7078 627.617C-2.50489 581.654 9.68321 535.688 21.8566 489.718C43.9393 483.587 65.0487 474.096 84.5092 461.548L204.403 527.909C205.539 528.873 206.854 529.577 208.266 529.976C209.678 530.376 211.154 530.462 212.601 530.229C215.605 529.999 218.263 528.513 220.316 526.352C222.589 524.096 224.123 521.076 224.271 517.671C224.444 516.138 224.31 514.585 223.878 513.111C223.445 511.637 222.724 510.273 221.761 509.108C199.541 467.969 177.266 426.795 155.036 385.633C166.397 364.975 174.841 342.709 180.106 319.527C223.941 305.354 267.842 291.18 311.688 277.03C323.506 273.22 323.329 255.363 311.404 251.918Z" fill="#FBB041"/>
<ellipse cx="-31.2777" cy="268.832" rx="203.722" ry="215.832" fill="#DCC67F"/>
</svg>
