<svg width="796" height="804" viewBox="0 0 796 804" fill="none" xmlns="http://www.w3.org/2000/svg">
<path d="M780.629 383.797L632.332 342.669C625.87 318.259 615.952 294.916 602.883 273.355C626.916 227.691 650.97 182.035 675.044 136.386C681.623 123.896 668.032 110.524 655.768 117.52L522.09 193.786C500.099 180.876 476.325 171.31 451.539 165.397C436.287 115.458 421.048 65.5183 405.794 15.4544C401.758 2.18242 382.704 2.40527 378.97 15.8382C365.074 66.3192 351.139 116.676 337.217 167.158C313.042 173.735 289.927 183.774 268.581 196.965C222.918 172.726 177.24 148.363 131.577 124.124C119.196 117.543 105.863 131.25 112.795 143.572L189.078 279.114C176.423 301.138 167.026 324.895 161.184 349.634L14.6666 395.093C1.47584 399.19 1.63695 418.379 14.9975 422.071L162.624 463.01C169.27 488.007 179.523 511.883 193.057 533.878C169.136 579.242 145.223 624.614 121.319 669.994C114.715 682.485 128.306 695.869 140.57 688.886C184.974 663.541 229.382 638.208 273.794 612.888C295.67 625.612 319.281 635.052 343.882 640.91C358.839 690.023 373.808 739.108 388.79 788.164C392.851 801.473 411.918 801.225 415.614 787.78C429.271 738.356 442.913 688.928 456.537 639.497C481.255 632.905 504.883 622.699 526.665 609.208L660.867 680.57C662.138 681.606 663.611 682.363 665.191 682.793C666.771 683.222 668.423 683.315 670.043 683.065C673.405 682.818 676.381 681.219 678.679 678.896C681.223 676.47 682.94 673.222 683.106 669.561C683.299 667.913 683.149 666.243 682.665 664.658C682.181 663.072 681.374 661.607 680.295 660.353C655.423 616.115 630.49 571.84 605.605 527.577C618.321 505.364 627.773 481.421 633.666 456.494C682.731 441.255 731.87 426.015 780.948 410.801C794.175 406.703 793.977 387.502 780.629 383.797Z" fill="#FBB041"/>
<ellipse cx="397.048" cy="401.965" rx="228.031" ry="232.087" fill="#DCC67F"/>
</svg>
