<svg width="34" height="34" viewBox="0 0 34 34" fill="none" xmlns="http://www.w3.org/2000/svg">
<path d="M5.66666 25.5C5.66666 23.9971 6.26369 22.5558 7.32639 21.4931C8.3891 20.4304 9.83044 19.8334 11.3333 19.8334H22.6667C24.1696 19.8334 25.6109 20.4304 26.6736 21.4931C27.7363 22.5558 28.3333 23.9971 28.3333 25.5C28.3333 26.2515 28.0348 26.9722 27.5035 27.5035C26.9721 28.0349 26.2514 28.3334 25.5 28.3334H8.5C7.74855 28.3334 7.02788 28.0349 6.49653 27.5035C5.96518 26.9722 5.66666 26.2515 5.66666 25.5Z" stroke="#933B3B" stroke-width="2" stroke-linejoin="round"/>
<path d="M17 14.1667C19.3472 14.1667 21.25 12.2639 21.25 9.91669C21.25 7.56948 19.3472 5.66669 17 5.66669C14.6528 5.66669 12.75 7.56948 12.75 9.91669C12.75 12.2639 14.6528 14.1667 17 14.1667Z" stroke="#933B3B" stroke-width="2"/>
</svg>
