<svg width="18" height="12" viewBox="0 0 18 12" fill="none" xmlns="http://www.w3.org/2000/svg">
<path d="M5.0048 9.56068C3.90986 9.11141 2.98715 8.4586 2.3252 7.66484C0.84873 5.89764 2.74056 4.30134 4.76098 3.44288C5.80937 3.01777 6.96612 2.76461 8.15472 2.70015C9.34332 2.63568 10.5366 2.76136 11.6556 3.06891M13.4992 3.82083C14.1533 4.19227 14.7003 4.65942 15.1069 5.19399L15.1284 5.22417C16.7871 7.44774 13.6171 9.24506 11.109 9.91856C9.67754 10.3017 8.12521 10.3514 6.65543 10.0613M14.9516 2.38136C14.9516 2.38136 16.1674 3.0528 16.6906 3.461M0.690621 3.461C0.690621 3.461 4.27329 0.690582 8.69196 0.690582C10.3271 0.719346 11.9283 1.04642 13.3571 1.64354M6.80015 7.7131C6.47032 7.4372 6.25409 7.09552 6.17762 6.72937C6.10114 6.36322 6.16769 5.98825 6.36923 5.64988C6.57077 5.31151 6.89872 5.02423 7.31331 4.82273C7.7279 4.62122 8.21141 4.51416 8.70538 4.51448C9.11118 4.51372 9.51113 4.58681 9.87097 4.72755M11.2617 6.42642C11.261 6.93494 10.9915 7.42243 10.5122 7.78201C10.033 8.14158 9.38314 8.34382 8.70537 8.34436M14.1476 1.0625L3.98121 10.6906" stroke="#E95322" stroke-width="1.38118" stroke-linecap="round" stroke-linejoin="round"/>
</svg>
