<svg width="796" height="491" viewBox="0 0 796 491" fill="none" xmlns="http://www.w3.org/2000/svg">
<path d="M859.521 10.4806L673.526 -37.1845C665.422 -65.477 652.984 -92.5326 636.593 -117.522C666.737 -170.45 696.907 -223.368 727.102 -276.278C735.354 -290.755 718.308 -306.253 702.926 -298.144L535.263 -209.744C507.682 -224.707 477.865 -235.794 446.778 -242.645C427.65 -300.527 408.538 -358.409 389.408 -416.436C384.347 -431.818 360.448 -431.559 355.766 -415.99C338.335 -357.479 320.856 -299.113 303.394 -240.602C273.073 -232.977 244.081 -221.341 217.308 -206.052C160.037 -234.144 102.749 -262.381 45.4777 -290.473C29.9491 -298.101 13.2265 -282.213 21.921 -267.931L117.592 -110.834C101.719 -85.3068 89.9321 -57.7711 82.6046 -29.0966L-101.161 23.5967C-117.705 28.3455 -117.504 50.5871 -100.747 54.8659L84.4076 102.311C92.7429 131.284 105.602 158.958 122.575 184.45C92.5712 237.03 62.5783 289.619 32.5959 342.218C24.3133 356.696 41.3588 372.208 56.7412 364.114C112.434 334.736 168.131 305.373 223.834 276.024C251.271 290.771 280.885 301.712 311.739 308.5C330.497 365.425 349.27 422.317 368.059 479.174C373.152 494.6 397.066 494.312 401.702 478.728C418.833 421.443 435.944 364.154 453.033 306.859C484.035 299.218 513.67 287.389 540.99 271.751L709.305 354.459C710.9 355.66 712.747 356.537 714.729 357.035C716.71 357.533 718.783 357.64 720.814 357.35C725.031 357.064 728.763 355.211 731.645 352.519C734.836 349.707 736.99 345.942 737.198 341.698C737.44 339.788 737.252 337.852 736.645 336.015C736.038 334.178 735.026 332.479 733.673 331.026C702.48 279.753 671.209 228.437 640 177.134C655.949 151.388 667.804 123.636 675.196 94.7447C736.734 77.0803 798.366 59.4147 859.92 41.779C876.511 37.0296 876.263 14.7741 859.521 10.4806Z" fill="#FBB041"/>
</svg>
